<?xml version="1.0" standalone="no"?>
<!DOCTYPE svg PUBLIC "-//W3C//DTD SVG 20010904//EN"
 "http://www.w3.org/TR/2001/REC-SVG-20010904/DTD/svg10.dtd">
<svg version="1.0" xmlns="http://www.w3.org/2000/svg"
 width="512.000000pt" height="512.000000pt" viewBox="0 0 512.000000 512.000000"
 preserveAspectRatio="xMidYMid meet">
<metadata>
Created by potrace 1.14, written by Peter Selinger 2001-2017
</metadata>
<g transform="translate(0.000000,512.000000) scale(0.100000,-0.100000)"
fill="#000000" stroke="none">
<path d="M2420 4864 c-195 -51 -355 -212 -405 -409 -8 -32 -15 -76 -15 -97 l0
-37 -372 -3 -373 -3 -67 -34 c-82 -41 -159 -119 -196 -198 l-27 -58 0 -1665 0
-1665 27 -58 c38 -80 117 -160 197 -200 l66 -32 492 -3 493 -3 0 -63 c0 -72
22 -115 79 -153 l34 -23 1087 0 1087 0 34 23 c18 12 44 38 56 56 l23 34 0
1367 0 1367 -22 33 c-49 72 -59 75 -268 78 l-189 3 -3 452 -3 452 -27 58 c-38
80 -117 160 -197 200 l-66 32 -372 3 -373 3 0 37 c0 21 -7 65 -15 97 -51 199
-211 359 -410 410 -74 19 -202 18 -275 -1z m250 -337 c58 -30 105 -93 120
-160 36 -160 -116 -314 -274 -278 -99 23 -165 88 -187 185 -9 44 -9 62 5 108
43 148 198 215 336 145z m-990 -674 c0 -113 47 -190 140 -232 44 -20 62 -21
740 -21 678 0 696 1 740 21 93 42 140 119 140 232 l0 67 93 0 c119 0 171 -23
205 -90 21 -43 22 -52 22 -377 l0 -333 -704 0 -703 0 -34 -23 c-18 -12 -44
-38 -56 -56 l-23 -34 0 -1103 0 -1104 -373 0 c-367 0 -373 0 -417 23 -33 16
-51 34 -67 67 l-23 44 0 1426 0 1426 23 44 c33 67 85 90 204 90 l93 0 0 -67z"/>
</g>
</svg>
